<svg version="1.1" id="Layer_1" xmlns="http://www.w3.org/2000/svg" xmlns:xlink="http://www.w3.org/1999/xlink" x="0px" y="0px" width="100px" height="17px" viewBox="0 0 100 17" style="enable-background:new 0 0 100 17;" xml:space="preserve">
<style type="text/css">
	.zurb-logo-color{fill:#000;}
</style>
<g id="Page-2">
<g id="zurb-logo" transform="translate(0.000000, 0.500000)">
<path id="Fill-1" class="zurb-logo-color" d="M69.4,5.7c0,0.2-0.2,0.4-0.4,0.4h-1.7v0H55.9v-2l12.4,0v0c0,0,0,0,0,0c0.6,0,1,0.5,1.1,1V5.7
			L69.4,5.7z M72.6,1.2C71.7,0.4,70.6,0,69.4,0H52.6c-0.7,0-1.2,0.6-1.2,1.2v15.1l3.4,0c0.6-0.1,1-0.5,1.1-1.1v-5.1l12.2,0
			c0.7,0,1.3,0.5,1.3,1.1v3.9c0,0,0,0.1,0,0.1v0.9h3.2v0h0.1c0.6,0,1.1-0.5,1.2-1.2v-2.9c0-1.2-0.5-2.2-1.5-3.1
			c1-0.8,1.5-1.8,1.5-3.1v-2C73.9,3,73.5,2,72.6,1.2L72.6,1.2z M95.1,11.9c0,0.2-0.2,0.4-0.4,0.4h-2.9c0,0,0,0,0,0h-10v-2
			c0,0,12.3,0,12.4,0c0.6,0,1,0.4,1.1,1V11.9L95.1,11.9z M81.7,4.1h5.6c0,0,0,0,0,0h3.3v0c0,0,0,0,0,0c0.6,0,1.1,0.5,1.1,1h0v0.6
			c0,0.2-0.2,0.4-0.4,0.4h-4c0,0,0,0,0,0h-5.6V4.1L81.7,4.1z M98.3,7c-0.3-0.2-0.5-0.4-0.9-0.6c-0.4-0.2-0.9-0.2-1.4-0.3v-2
			c0-1.1-0.4-2.1-1.3-2.9C93.9,0.4,92.9,0,91.6,0H78.4v0c-0.7,0-1.2,0.6-1.2,1.2v15.1h18c1.2,0,2.3-0.4,3.2-1.2
			c0.9-0.8,1.3-1.8,1.3-2.9v-2C99.6,9,99.2,7.8,98.3,7L98.3,7z M44.9,0c-0.6,0-1.2,0.5-1.2,1.2l0,9.9c0,0.7-0.6,1.2-1.3,1.2
			c0,0-8.3,0-11,0c-0.7,0-1.2-0.6-1.2-1.2h0V0h-3.3v0c-0.6,0-1.1,0.4-1.2,1v11.3c0,1.1,0.4,2.1,1.3,2.9c0.9,0.8,1.9,1.2,3.2,1.2
			h13.5c1.2,0,2.3-0.4,3.2-1.2c0.9-0.8,1.3-1.8,1.3-2.9V0L44.9,0L44.9,0L44.9,0z M21.6,6.5c0.6-0.7,0.9-1.5,0.9-2.5
			c0-1.1-0.4-2.1-1.3-2.9C20.3,0.4,19.2,0,18,0H1C0.4,0.1,0,0.6,0,1.2v2.9h17.9L3.2,8.3C2.2,8.6,1.5,9.1,0.9,9.8
			C0.3,10.5,0,11.3,0,12.2c0,1.1,0.4,2.1,1.3,2.9c0.9,0.8,1.9,1.2,3.2,1.2l16.9,0c0.6-0.1,1-0.5,1.1-1.1v-3h-18L19.3,8
			C20.2,7.7,21,7.2,21.6,6.5L21.6,6.5z"></path>
</g>
</g>
</svg>